<?xml version="1.0" encoding="utf-8"?>
<!DOCTYPE svg PUBLIC "-//W3C//DTD SVG 1.0//EN" "http://www.w3.org/TR/2001/REC-SVG-20010904/DTD/svg10.dtd">
<svg version="1.0" xmlns="http://www.w3.org/2000/svg" width="512px" height="512px" viewBox="0 0 512 512" preserveAspectRatio="xMidYMid meet">
 <g fill="#000000">
  <path d="M214.7 471.2 c-1 -1.1 -3.3 -9.5 -5.8 -21.2 -2.2 -10.6 -4.8 -20.4 -5.7 -21.8 -3.1 -4.7 -6.1 -5.2 -33.9 -5.2 -18.4 0 -27.7 -0.4 -32.5 -1.5 -18.8 -3.9 -35.9 -19 -41.7 -36.8 -1.1 -3.4 -4.3 -19 -7.1 -34.6 -2.7 -15.6 -5.2 -28.6 -5.4 -28.9 -0.3 -0.2 -6.3 -3.1 -13.3 -6.4 -7 -3.3 -14.2 -7 -15.9 -8.4 -7.5 -5.6 -10.6 -19.1 -6.5 -27.9 1 -2.2 9.3 -15.5 18.5 -29.5 l16.6 -25.5 0 -14.6 c0 -8.1 0.5 -19.3 1.1 -25 1.6 -15.7 0.2 -14.9 27.6 -14.9 l22.3 0 0 -7.6 c0 -7.4 -0.1 -7.6 -2.3 -7 -13.6 3.8 -25.6 2.8 -37.8 -3 -13.1 -6.3 -22.6 -18.3 -26.6 -33.7 -1.6 -6.1 -1.6 -7 -0.3 -9.5 5.3 -9.3 27.1 -15.4 42.4 -11.8 11.6 2.8 24.1 10.9 29.9 19.6 l1.7 2.4 5.2 -5.8 c15.5 -17.5 39.3 -22.2 59.7 -12 8.8 4.4 10.6 6.4 10.3 11.7 -0.6 14.7 -12.9 32 -27.8 39.2 -11.9 5.8 -23.2 6.7 -37.1 2.9 -2.2 -0.6 -2.3 -0.4 -2.3 7 l0 7.6 55.5 0 55.5 0 0 -36.1 0 -36 -2.2 0.7 c-18.1 5.8 -37.9 1.1 -51.2 -12.2 -7.8 -7.8 -14.6 -22.1 -14.6 -30.7 0 -7.3 14.2 -14.6 30.1 -15.5 16 -0.8 27 3.6 38.5 15.3 l7.1 7.3 4 -5.2 c5 -6.6 14.5 -13 23 -15.6 14.9 -4.6 35.7 -0.9 45.2 8.1 2.1 2 2.3 2.8 1.8 7.8 -1.6 16.8 -14 32.9 -30.8 39.7 -10 4.1 -24.8 4.4 -34.3 0.8 -1.5 -0.6 -1.6 2.5 -1.6 35.5 l0 36.1 55.3 -0.2 55.2 -0.3 0.3 -7.4 0.3 -7.4 -2.8 0.7 c-14.6 3.2 -21.5 3.1 -31.6 -0.3 -16.2 -5.6 -29.4 -20.6 -32.9 -37.1 -1.5 -7.6 -0.6 -10.5 4.5 -13.7 20.5 -13.1 46.4 -10 63 7.7 l6.6 6.9 7.3 -7.3 c15.8 -15.8 36.5 -19.7 56.3 -10.7 11.4 5.2 13.1 8.5 10.1 19.6 -6.7 25.3 -33.3 41.9 -57.9 36.1 -3.8 -0.9 -7 -1.6 -7.3 -1.6 -0.2 0 -0.4 3.4 -0.4 7.5 l0 7.5 25.3 0 c29.4 0 28.1 -0.5 29.8 10.1 1.7 9.9 1.4 37.8 -0.5 49.4 -3.3 20.3 -9.1 38.6 -17.4 55.2 -2.2 4.4 -13.2 23.1 -24.5 41.6 -25.9 42.6 -27.1 45.6 -27.2 68.7 0 15.2 0.1 16.1 5.8 42.3 3.1 14.8 5.7 28.2 5.7 29.8 0 1.6 -0.9 3.8 -2 4.9 -2 2 -3.3 2 -90.3 2 -84.4 0 -88.5 -0.1 -90 -1.8z m165.3 -14.5 c0 -0.8 -2.3 -12.6 -5.1 -26.3 -5.1 -24.6 -5.1 -25.1 -4.6 -38.9 0.5 -15.7 2.6 -25.2 8.1 -37 1.8 -3.8 12.2 -21.6 23.1 -39.5 10.9 -17.9 21.7 -36.5 24 -41.5 11.4 -24.3 16.6 -50.8 15.7 -79.8 l-0.3 -9.7 -171.3 0 -171.3 0 -0.7 5.2 c-0.3 2.9 -0.6 12.8 -0.6 21.9 l0 16.6 -18.5 28.4 c-15.7 24.2 -18.5 29 -18.5 32.2 0 5.3 2.2 7 20 15.1 8.3 3.8 15.5 7.7 16 8.6 0.5 0.9 3.4 16 6.5 33.6 6.2 35.6 7.9 40.6 15.9 49.2 5.4 5.7 13.8 10.5 21.4 12.1 3.1 0.6 16.1 1.1 31 1.1 14.4 0 27.3 0.5 29.4 1 5.7 1.6 13 7 16 12 1.9 3.1 3.7 8.8 5.8 18.5 1.6 7.7 3.2 15 3.5 16.3 l0.5 2.2 77 0 c63.5 0 77 -0.2 77 -1.3z m-252.2 -317.2 c2.3 -1 4.2 -2.2 4.2 -2.9 0 -3.1 -5.5 -12.2 -10 -16.6 -6.6 -6.4 -14 -9.4 -24 -9.4 -7.8 -0.1 -17 2.5 -17 4.7 0 2.4 4.8 11.4 8 15.1 3.9 4.4 10.6 8.5 16.9 10.3 5.7 1.6 16.3 1 21.9 -1.2z m46.5 1 c9.9 -2.6 17.6 -8.7 22.1 -17.5 4.3 -8.3 4.3 -8.6 -1.1 -10.7 -7.5 -2.8 -19.3 -2.4 -26.5 0.9 -7.3 3.4 -14.1 9.7 -17.3 16.1 -3.5 7.1 -3.3 8.3 1.8 10.1 8.2 3 12.9 3.2 21 1.1z m205 -1.1 c5.4 -1.8 5.4 -2.1 1.1 -10.4 -7.9 -15.6 -27.2 -22.9 -43.4 -16.4 -4.5 1.8 -4.8 3 -2.1 9 3.9 8.6 13.2 16.3 23 19.1 5.5 1.6 14.8 1 21.4 -1.3z m52.8 -1 c4 -1.8 7.6 -4.5 10.9 -8 4.9 -5.4 8.7 -13.1 7.7 -15.7 -0.6 -1.6 -10.9 -4.7 -15.8 -4.7 -4.6 0 -14.3 2.6 -17.7 4.7 -7.4 4.6 -14.1 13 -16.2 20.5 -0.8 2.5 -0.6 2.8 3.8 4.2 7.6 2.4 8.4 2.5 15 2.1 3.9 -0.3 8.6 -1.4 12.3 -3.1z m-180.3 -54.9 c2.8 -0.9 5.4 -2 5.7 -2.5 1.1 -1.7 -4.1 -11.6 -8.5 -16.4 -6 -6.5 -13.4 -9.8 -22.9 -10.4 -7.8 -0.4 -14.2 0.7 -17.6 3.2 -1.8 1.3 -1.8 1.5 -0.1 5.9 6.3 16.6 25.5 25.5 43.4 20.2z m49.2 0.5 c9.9 -2.7 20.2 -12.4 23.5 -21.8 l1.4 -4.3 -3.7 -1.6 c-4.7 -2 -17.5 -2.8 -22.7 -1.4 -6.4 1.7 -14.6 7.2 -18.6 12.4 -4.3 5.8 -6.8 12.2 -5.2 13.8 3.4 3.4 17.7 5 25.3 2.9z"/>
  <path d="M136 238.6 c-5.9 -1.7 -14 -5.9 -16.4 -8.5 -2.7 -3 -2.5 -7.9 0.3 -10.3 3.3 -2.6 5.9 -2.3 13.1 1.5 5.7 2.9 7.2 3.2 14.9 3.2 7.8 0 9.2 -0.3 14.5 -3.3 7.3 -4 10.7 -4.1 13.5 -0.6 4 5.1 2.4 8.8 -6 13.7 -9 5.3 -23.7 7.1 -33.9 4.3z"/>
 </g>
</svg>